<?xml version="1.0" standalone="no"?><!DOCTYPE svg PUBLIC "-//W3C//DTD SVG 1.1//EN" "http://www.w3.org/Graphics/SVG/1.1/DTD/svg11.dtd"><svg t="1647271707696" class="icon" viewBox="0 0 1024 1024" version="1.1" xmlns="http://www.w3.org/2000/svg" p-id="18200" xmlns:xlink="http://www.w3.org/1999/xlink" width="40" height="40"><defs><style type="text/css"></style></defs><path d="M436.695053 450.382244a25.393676 25.393676 0 0 1 35.906658 0l71.813317 71.838711 83.44362-75.69855a37.303311 37.303311 0 0 1 55.866089 17.115338 27.933044 27.933044 0 0 1 0 35.906659l-71.813317 71.813317 71.813317 71.83871a25.393676 25.393676 0 0 1-35.906659 35.906658l-71.813317-71.813316-71.83871 71.813316a48.908221 48.908221 0 0 1-55.866088 1.853739 46.343459 46.343459 0 0 1-11.782666-51.015896l71.813317-71.813317-71.813317-71.83871a25.393676 25.393676 0 0 1 0.177756-35.906659z m570.74827 156.044142l-395.125604 395.049423a50.787353 50.787353 0 0 1-71.838711 0l-250.635586-250.45783 0.228543-0.203149c-0.203149-0.203149-0.48248-0.253937-0.685629-0.457087a25.393676 25.393676 0 0 1 35.906658-35.906658c0.203149 0.203149 0.27933 0.48248 0.457087 0.685629l3.707476-3.707477 196.343906 190.452573c19.832461 19.832461 65.668047 26.841116 85.500508 7.008655l257.237942-270.645803a63.027105 63.027105 0 0 0 13.204712-87.201885l-457.594048-477.401115-307.009548-11.554123c0 0.304724 0 0.711023 0.20315 1.04114a37.277917 37.277917 0 0 0-12.392115-2.539367 38.090515 38.090515 0 0 0-38.090514 38.090514 37.455673 37.455673 0 0 0 2.387005 11.80806c-0.863385-0.330118-1.777557-0.533267-2.539367-0.914172l7.034048 353.479975 73.4893 71.305443-0.888779 0.863385a25.393676 25.393676 0 0 1-35.906658 35.906658l-0.152362 0.177756-107.669188-107.567613 5.408853-408.990552c1.142715 0 2.107675 0.660236 3.275784 0.660236 0.330118 0 0.634842-0.177756 0.96496-0.20315a37.049374 37.049374 0 0 1-3.682083-15.718685A37.709609 37.709609 0 0 1 46.292672 1.802951c0.863385 0 1.574408 0.431692 2.539368 0.48248l422.322232-2.310825 536.289051 534.714644a50.787353 50.787353 0 0 1 0 71.737136z m-789.870304 0.27933c0.203149 0.203149 0.253937 0.48248 0.431693 0.685629l2.082281-2.082281 36.465319 35.373391-2.539367 2.539368a25.393676 25.393676 0 0 1-35.906659 35.906658v0.126968l-35.932052-35.906658 0.253937-0.253937a5.916727 5.916727 0 0 1-0.660235-0.431692 25.393676 25.393676 0 0 1 35.805083-35.957446z" fill="#48BCF5" p-id="18201"></path><path d="M536.568382 1008.636826l-250.635586-250.432437 0.203149-0.203149c-0.203149-0.203149-0.457086-0.253937-0.660235-0.457086a25.393676 25.393676 0 0 1 35.906658-35.906659c0.203149 0.203149 0.253937 0.457086 0.457086 0.660236l214.728928 214.525778a50.787353 50.787353 0 0 0 71.813317 0l323.134532-323.210713a50.787353 50.787353 0 0 0 0-71.83871L452.489919 62.011358s-354.368754 1.879132-355.003595 2.539367a37.658822 37.658822 0 0 0-37.887366 37.150949l-3.351965 355.30832 85.09421 85.018028c0.304724 0.304724 0.736417 0.406299 1.04114 0.711023a25.393676 25.393676 0 0 1-35.906658 35.906659l-0.177756 0.177755-103.987104-108.278636S1.44744 99.238487 1.44744 47.003695A36.033627 36.033627 0 0 1 43.372399 9.674991L465.643844 8.836999l537.736491 533.038661a50.787353 50.787353 0 0 1 0 71.838711L608.381699 1008.7384a50.787353 50.787353 0 0 1-71.813317-0.101574zM213.636999 613.892126c0.253937 0.253937 0.330118 0.609448 0.584055 0.863385l35.119454 35.094061c0.228543 0.228543 0.558661 0.27933 0.787204 0.507874a25.393676 25.393676 0 1 1-35.932052 35.932052L178.289002 650.382839l0.253937-0.253936c-0.203149-0.203149-0.48248-0.253937-0.68563-0.457087a25.393676 25.393676 0 0 1 35.77969-35.77969z m286.745394-143.093366l71.813317 71.838711 71.83871-71.838711a25.393676 25.393676 0 0 1 35.906659 35.906658l-71.813317 71.838711 71.813317 71.813317a25.393676 25.393676 0 1 1-35.906659 35.932052l-71.83871-71.838711-71.813317 71.838711a25.393676 25.393676 0 0 1-35.906658-35.932052l71.813316-71.813317-71.813316-71.838711a25.393676 25.393676 0 0 1 35.906658-35.906658z" fill="#4076FD" p-id="18202"></path><path d="M192.560248 199.492722m-38.090515 0a38.090515 38.090515 0 1 0 76.18103 0 38.090515 38.090515 0 1 0-76.18103 0Z" fill="#4076FD" p-id="18203"></path></svg>
