<?xml version="1.0" standalone="no"?><!DOCTYPE svg PUBLIC "-//W3C//DTD SVG 1.1//EN" "http://www.w3.org/Graphics/SVG/1.1/DTD/svg11.dtd"><svg t="1647271604182" class="icon" viewBox="0 0 1024 1024" version="1.1" xmlns="http://www.w3.org/2000/svg" p-id="17183" xmlns:xlink="http://www.w3.org/1999/xlink" width="40" height="40"><defs><style type="text/css"></style></defs><path d="M708.266667 626.346667c0-11.946667-10.24-22.186667-22.186667-22.186667H380.586667c-11.946667 0-22.186667 10.24-22.186667 22.186667 0 11.946667 10.24 22.186667 22.186667 22.186666h305.493333c11.946667 0 22.186667-10.24 22.186667-22.186666zM808.96 744.106667c0-11.946667-10.24-22.186667-22.186667-22.186667H380.586667c-11.946667 0-22.186667 10.24-22.186667 22.186667 0 11.946667 10.24 22.186667 22.186667 22.186666h406.186666c11.946667 0 22.186667-10.24 22.186667-22.186666z" fill="#1296db" p-id="17184"></path><path d="M897.706667 940.373333H302.08c-22.186667 0-39.253333-17.066667-39.253333-39.253333V488.106667c0-22.186667 17.066667-39.253333 39.253333-39.253334h595.626667c22.186667 0 39.253333 17.066667 39.253333 39.253334v411.306666c0 22.186667-17.066667 40.96-39.253333 40.96z m-592.213334-44.373333h587.093334V493.226667H305.493333v402.773333z" fill="#1296db" p-id="17185"></path><path d="M834.56 621.226667L819.2 597.333333c-1.706667-1.706667-3.413333-1.706667-5.12 0l-15.36 23.893334c-1.706667 1.706667-5.12 1.706667-5.12-1.706667v-134.826667c0-5.12 1.706667-8.533333 3.413333-8.533333H836.266667c1.706667 0 3.413333 3.413333 3.413333 8.533333v134.826667c0 3.413333-3.413333 3.413333-5.12 1.706667z" fill="#1296db" p-id="17186"></path><path d="M721.92 244.053333h-170.666667v-119.466666C551.253333 102.4 534.186667 85.333333 512 85.333333H122.88C102.4 85.333333 83.626667 104.106667 83.626667 124.586667v776.533333c0 22.186667 17.066667 39.253333 39.253333 39.253333h80.213333c10.24-1.706667 20.48-10.24 20.48-22.186666 0-11.946667-10.24-22.186667-22.186666-22.186667H128V129.706667h380.586667v261.12c0 11.946667 10.24 22.186667 22.186666 22.186666 11.946667 0 22.186667-10.24 22.186667-22.186666v-102.4h165.546667v102.4c0 11.946667 10.24 22.186667 22.186666 22.186666 11.946667 0 22.186667-10.24 22.186667-22.186666v-107.52c-1.706667-22.186667-18.773333-39.253333-40.96-39.253334z" fill="#1296db" p-id="17187"></path></svg>
