<?xml version="1.0" standalone="no"?><!DOCTYPE svg PUBLIC "-//W3C//DTD SVG 1.1//EN" "http://www.w3.org/Graphics/SVG/1.1/DTD/svg11.dtd"><svg t="1650086666981" class="icon" viewBox="0 0 1024 1024" version="1.1" xmlns="http://www.w3.org/2000/svg" p-id="2372" xmlns:xlink="http://www.w3.org/1999/xlink" width="200" height="200"><defs><style type="text/css"></style></defs><path d="M512 36.141176c68.266667 0 132.517647 27.105882 180.705882 75.294118L913.568627 331.294118c48.188235 48.188235 75.294118 112.439216 75.294118 180.705882S961.756863 644.517647 913.568627 692.705882L693.709804 913.568627c-48.188235 48.188235-112.439216 75.294118-180.705882 75.294118-68.266667 0-132.517647-27.105882-180.705883-75.294118l-220.862745-220.862745c-99.388235-99.388235-99.388235-262.023529 0-362.415686L331.294118 110.431373c48.188235-48.188235 112.439216-74.290196 180.705882-74.290197m0-30.117647c-73.286275 0-146.572549 28.109804-202.792157 83.325491L90.352941 309.207843a285.997176 285.997176 0 0 0 0 405.584314l219.858824 219.858823c56.219608 56.219608 129.505882 83.32549 202.792157 83.325491s146.572549-28.109804 202.792156-83.325491l219.858824-219.858823c111.435294-111.435294 111.435294-293.145098 0-404.580392l-220.862745-220.862745C658.572549 34.133333 585.286275 6.023529 512 6.023529z" fill="#575757" p-id="2373"></path><path d="M405.584314 762.980392h-5.019608C334.305882 762.980392 281.098039 708.768627 281.098039 641.505882v-3.011764c3.011765-28.109804 26.101961-82.321569 96.376471-88.345098 44.172549-3.011765 78.305882 15.058824 105.411765 40.156862V542.117647c0-17.066667 13.05098-30.117647 30.117647-30.117647s30.117647 13.05098 30.117647 30.117647v99.388235c0 5.019608-1.003922 11.043137-1.003922 16.062745 15.058824 18.070588 29.113725 35.137255 41.160784 40.156863 14.054902 6.023529 32.12549 5.019608 46.180393-2.007843 11.043137-6.023529 26.101961-17.066667 33.129411-43.168627 5.019608-16.062745 21.082353-25.098039 37.145098-21.082353 16.062745 5.019608 25.098039 21.082353 21.082353 37.145098-10.039216 36.141176-33.129412 65.254902-65.254902 80.313725-30.117647 15.058824-65.254902 16.062745-95.372549 4.015686-17.066667-7.027451-31.121569-19.07451-45.17647-34.133333-22.086275 29.113725-60.235294 44.172549-109.427451 44.172549zM341.333333 642.509804c1.003922 33.129412 27.105882 60.235294 59.231373 60.235294h5.019608c43.168627 0 62.243137-15.058824 71.278431-31.121569-32.12549-39.152941-58.227451-64.25098-94.368627-61.239215-34.133333 3.011765-40.156863 27.105882-41.160785 32.12549z" fill="#2396F4" p-id="2374"></path><path d="M510.996078 543.121569h-7.027451c-88.345098 0-160.627451-72.282353-160.627451-161.631373V267.043137l17.066667-8.031372c2.007843-1.003922 39.152941-18.070588 87.341177-18.070589 17.066667 0 30.117647 13.05098 30.117647 30.117648s-13.05098 30.117647-30.117647 30.117647-33.129412 3.011765-44.172549 6.023529V381.490196c0 56.219608 45.176471 101.396078 100.392156 101.396079h7.027451c55.215686 0 100.392157-45.176471 100.392157-101.396079v-74.290196c-9.035294-3.011765-22.086275-6.023529-37.145098-6.023529-17.066667 0-30.117647-13.05098-30.117647-30.117647s13.05098-30.117647 30.117647-30.117648c44.172549 0 77.301961 17.066667 81.317647 18.070589l16.062745 8.031372V381.490196c-1.003922 89.34902-72.282353 161.631373-160.627451 161.631373z" fill="#2396F4" p-id="2375"></path><path d="M697.72549 570.227451c10.039216 0 18.070588 8.031373 18.070588 18.070588s-8.031373 18.070588-18.070588 18.070588-18.070588-8.031373-18.070588-18.070588c0-9.035294 8.031373-18.070588 18.070588-18.070588m0-60.235294c-43.168627 0-78.305882 35.137255-78.305882 78.305882s35.137255 78.305882 78.305882 78.305883 78.305882-35.137255 78.305883-78.305883-34.133333-78.305882-78.305883-78.305882z" fill="#E85F5B" p-id="2376"></path></svg>